<?xml version="1.0" encoding="UTF-8"?><svg id="Layer_2" xmlns="http://www.w3.org/2000/svg" viewBox="0 0 566.96 632.47"><defs><style>.cls-1{fill:#000;}.cls-1,.cls-2{stroke-width:0px;}.cls-2{fill:#fff;}</style></defs><g id="Layer_1-2"><path class="cls-1" d="M0,0c320,0,246.96,0,566.96,0,0,320,0,312.47,0,632.47-320,0-246.96,0-566.96,0C0,312.47,0,320,0,0ZM424.33,509.62c-3.25,2.27-6.49,4.53-10.44,7.28,1.77.56,2.68,1.11,2.94.89,3.85-3.27,7.62-6.65,11.41-10-.5-.06-1-.11-1.5-.17,2.1-1.57,4.61-2.79,6.24-4.75,9.14-10.99,16.5-23.16,20.16-37,11.53-43.59,4.76-84.46-19.4-122.49-.41-.64-1.04-1.14-1.63-1.78-11.51,52.38-38.32,98.46-57,147.76,19.43-40.06,38.86-80.12,58.54-120.7,7.51,17.35,13.3,34.57,10.31,53.6.52.38,1.05.76,1.57,1.14,2.1-2.85,4.2-5.69,6.39-8.66.64.96.81,1.1.8,1.23-1,33.07-5.98,64.89-28.51,91.25-.38.44.07,1.58.13,2.39ZM330.77,83.25c-18.47-14.46-82.5-13.75-95.72.32,3.65,3.36,3.38,6.57-.94,10.77-2.77-5.13-5.31-10.38-8.35-15.33-10.02-16.33-22.5-30.1-40.52-37.96-22.23-9.7-47.69-2.02-58.79,18.03-8.57,15.5-11.84,32.3-9.5,49.75,3.23,24.01,15.49,41.45,39.15,49.61,8.18,2.82,10.51,1.82,14.77-6.41-8.31-1.94-16.82-3.39-22.95-10.57,6.71,1.26,13.42,2.52,21.32,4-22.25-21.32-32.07-45.78-27.51-75.94-3.56,2.4-6.9,4.66-10.4,7.03.86-5.43,5.25-12.56,10.47-17.25,10.47-9.41,19.97-10.15,30.95-1.49,13.2,10.42,21.08,24.16,23.43,40.94.97,6.93,2.05,13.84,3.3,22.24.86-3.18,1.8-5.05,1.78-6.9-.09-8.94-.46-17.89-.69-26.83-.07-2.51-.01-5.02-.01-6.9,3.03,0,5.2-.4,7.14.1,2.48.64,5.39,1.42,7.04,3.16,3.91,4.12,7.43,8.79,1.25,14.08-.58.5-.69,1.51-1.14,2.2-3.69,5.59-3.74,13.04-9.07,17.82-.53.48-.77,1.53-.76,2.32.03,4.19.38,8.38.22,12.56-.1,2.69-.88,5.36-1.33,7.95,2.51-.82,5.76-2.02,9.09-2.94,11.29-3.12,20.87-.59,29.01,8.16,10.57,11.36,13.29,26.03,18.61,40.44-3.84-2.09-6.84-3.72-10.95-5.96,1.84,7.33,3.28,13.07,4.72,18.81-3.83-2.62-6.86-5.48-9.35-8.76-2.23-2.95-4.61-3.64-8.14-2.83-8.05,1.84-15.39-.27-21.23-5.91-4.08-3.94-7.29-8.77-10.88-13.18-4.25.85-8.99,1.79-13.31,2.66,2.24,3,4.94,5.66,6.47,8.88,2.83,5.97,9.96,9.62,9.3,17.55-.07.88,2.16,2.39,3.57,2.88,6.29,2.17,12.66,4.15,19.04,6.05,5.38,1.6,9.03,5.06,10.78,10.23.73,2.16-.32,5,.58,7.02,4.52,10.19,10.57,18.41,23.02,20.26,5.25.78,8.63,1.29,9.75-3.33-2.76-2.91-5.01-5.29-7.18-7.58-.01.02-.43.77-1.18,2.14-1.31-2.15-2.43-3.76-3.32-5.49-1.48-2.87-2.19-6.3.86-8.06,2.22-1.28,5.54-1.29,8.24-.92,2.17.3,4.27,1.83,6.18,3.15,4.04,2.79,7.48,2.25,11.3-.72,7.03-5.46,9.07-5.32,16.28-.24-.16.97-.2,2-.5,2.94-1,3.09-.87,6.64-5.86,7.11-2.32.22-4.58,3.1-6.45,5.16-.77.84-.88,2.88-.42,4.02.28.7,2.28,1.13,3.41.97,6.07-.83,12.53-7.51,13.61-13.78.79-4.59.45-8.67-4.27-10.12,1.24-7.37,2.35-14.33,3.58-21.27.93-5.22,2.02-10.42,2.9-14.91-.92.52-3.03,1.72-5.51,3.13,0-1.19-.23-2.05.03-2.71,4.11-10.34,7.32-21.17,12.66-30.84,7.8-14.12,18.69-18.27,34.54-15.47,1.09.19,2.17.37,3.26.56-10.16-6.31-20.61-6.16-32.58-1.02-1.2-3.35-2.53-6.56-3.47-9.89-.71-2.53-.54-5.74-1.28-7.74-1.77-4.77-4.86-9.46-8.57-12.97-3.66-3.47-4.65-5.82-.51-8.82,4.15-3.02,8.63-5.59,12.93-8.41,2.59-1.69,5.11-3.48,8.13-5.55ZM207.34,446.17c6.05-11.83,12.11-23.47,17.9-35.24.76-1.54.49-3.87.03-5.66-7.39-29.2-14.87-58.38-22.43-87.54-.38-1.46-1.29-3.15-2.48-3.98-10.22-7.13-14.85-18.51-21.85-27.59,2.11-4.65,5.12-5.43,9.32-2.95-1.51-12.52-2.94-24.38-4.39-36.34-.58.24-1,.28-1.14.5-17.17,26.15-28.56,54.8-36.47,84.92-.25.97.33,2.8,1.12,3.3,4,2.52,7.75,5.56,13.17,4.69,3.74-.6,7.69-.58,11.46-.11,5.58.7,8.85-1.02,9.36-6.89.01-.15.49-.27.98-.51,3.47,9.78,6.93,19.53,10.92,30.78-5.85-2.61-7.59,6.46-12.61,2.49-3.43-2.72-5.76-6.83-8.55-10.34-.41-.51-.6-1.21-1.03-1.71-.51-.6-1.12-1.48-1.77-1.56-5.01-.61-10.04-1.06-16-1.65.83,2.61,1.14,4.03,1.72,5.33,11.87,26.94,23.75,53.88,35.72,80.78.54,1.22,1.78,2.4,2.98,2.99,4.47,2.18,9.07,4.1,14.04,6.3ZM366.28,117.61c.49-.07.98-.15,1.47-.22,0-2.08-.09-4.17.01-6.25,1.07-21.05,8.49-39.23,24.75-53.14,9.7-8.3,21.47-8.33,30.62.56,4.78,4.65,8.09,10.83,11.96,16.39.51.73.41,1.89.55,2.65-3.57-2.83-7-5.54-11.03-8.73,4.9,29.7-5.15,55.49-24.62,76.17,6.89-1.56,13.78-3.12,20.67-4.67-7.29,7.07-16.47,9.85-26.66,11.68,2.3,2.82,3.82,5.02,5.71,6.85.88.85,2.63,1.58,3.72,1.3,12.37-3.15,23.62-8.59,31.35-19.09,18.5-25.13,18.67-52.25,5.75-79.34-10.61-22.25-33.22-30.26-56.58-22.18-19.67,6.81-32.86,20.98-43.1,38.29-3.4,5.74-5.82,12.05-8.69,18.1.38.24.76.48,1.15.72,4.52-4.26,9.03-8.51,13.58-12.8,3.21,2.98,6.09,5.66,8.89,8.27-.29.23-1.27,1.03-3.16,2.57,7.37-1.66,10.03.41,10.83,6.6.71,5.45,1.86,10.84,2.82,16.26ZM486.02,375.99c.22,0,.44,0,.67,0v-212.52c-3.34,0-6.79,0-10.25,0-7.64.02-7.67.02-7.66,7.84.09,52.14.21,104.27.29,156.41.03,19.38,0,38.77,0,58.15.57,0,1.14,0,1.71,0,0-5.32-.03-10.63,0-15.95.06-8.73,2.08-10.71,11.53-11.06.15,3.04.3,6.1.46,9.16.35-.02.7-.04,1.04-.06v-11.28c.2.01.41.02.61.04.53,6.43,1.05,12.86,1.58,19.28ZM388.62,288.9c-.53-.37-1.06-.75-1.58-1.12-.41.23-.95.36-1.22.71-.81,1.05-1.51,2.18-2.27,3.28-5.54,8.05-10.19,16.85-19.14,21.99-1.05.6-1.71,2.32-2.05,3.65-7.37,29.22-14.72,58.44-21.89,87.71-.54,2.22-.37,5.1.61,7.13,4.67,9.76,9.79,19.3,14.6,28.99,1.78,3.58,3.68,5.21,7.66,2.65,2.19-1.41,4.85-2.24,7.41-2.9,2.77-.71,4.41-2.05,5.61-4.8,10.58-24.26,21.37-48.42,32.01-72.66,1.57-3.58,2.68-7.36,4.26-11.74-2.81-.13-4.75-.23-6.69-.3-5.78-.2-10.9.14-13.9,6.71-1.63,3.56-4.97,7.32-8.44,8.69-2.13.84-5.98-2.65-9.05-4.21-.56-.29-1.07-.67-1.71-1.08,1.75-4.5,3.26-8.92,5.15-13.16,4.98-11.16,6.79-22.07-1.78-32.46-.21-.25-.29-.6-.48-.87-1.91-2.82-1.61-5,.64-7.91,4.48-5.8,8.21-12.17,12.25-18.31ZM79.11,206.58v196.9c.55,0,1.1,0,1.65,0,0-3.79-.35-7.63.17-11.34.21-1.51,2.08-3.31,3.64-4.01,3.13-1.41,6.56-2.15,10.22-3.27v28c.35,0,.7,0,1.05,0v-206.27h-16.73ZM167.98,553.98c-8.84-9.91-8.84-10.08-19.79-10.03-14.02.06-27.46-2.7-40.52-7.59-30.02-11.26-49.82-32.33-58.14-63.19-9.35-34.66-4.67-68.01,12.25-99.66,1.12-2.09,1.96-4.33,2.92-6.5-.99-.75-1.97-1.5-2.96-2.24-.67,1.54-1.15,3.19-2.03,4.59-3.12,4.91-6.7,9.55-9.52,14.62-9.65,17.3-17.6,35.33-18.09,55.5-.57,23.65,6.51,45.28,19.52,64.93,17.28,26.08,41.81,41.32,72.11,47.93,1.91.42,3.85,2.27,5.06,3.97,2.73,3.83,5.01,7.98,7.47,12,.22-.14.44-.27.65-.41-2.28-5.12-4.56-10.25-7.18-16.13,13.29.78,25.16,1.47,38.24,2.23ZM398.4,554.11c13.16-.81,25.26-1.55,38.28-2.36-2.18,5.19-3.96,9.44-5.74,13.69,2.29-2.18,4.32-4.56,5.16-7.3,1.34-4.38,4.32-5.68,8.34-6.55,48.28-10.46,81.3-48.56,88-97.68,4.32-31.68-8.18-59.05-25.89-84.38-.86-1.23-2.62-1.82-3.97-2.71-.38.33-.75.67-1.13,1,.68,1.56,1.24,3.18,2.05,4.67,13.91,25.83,19.84,53.29,16.1,82.47-3.84,29.99-16.6,54.85-42.73,71.76-18.47,11.95-38.79,17.69-60.55,17.31-8.3-.15-12.39,4.37-17.92,10.08ZM152.31,413.71c.28-.33.57-.66.85-.99,11.71,23.16,23.42,46.33,35.12,69.49-18.78-46.43-42.78-90.69-54.27-139.98-.7.36-1.04.44-1.26.66-.35.35-.65.76-.92,1.18-21.22,33.21-28.47,69.34-21.89,108.09,2.21,12.98,6.16,25.62,13.16,37,2.27,3.69,5.04,7.06,7.58,10.57,1.6-10.93-6.55-18.06-8.66-27.31-2.15-9.41-4.58-18.8-6.02-28.33-1.41-9.35-1.73-18.86-2.53-28.29.51-.21,1.02-.43,1.53-.64,2.43,3.17,4.86,6.34,7.29,9.52.32-.38.63-.76.95-1.15-.48-7.04-.97-14.09-1.45-21.13.52-.01,1.04-.03,1.56-.04-.19,2.07-.38,4.15-.57,6.22,1.51-1.04,1.66-2.83,2.52-3.3,1.87-1.02,5.72-2.27,5.95-1.86,2.14,3.83,6.19,3.1,9,3.24,3.86.19,5.47,2.55,7.79,4.54,1.24,1.06,2.84,1.69,4.27,2.52ZM323.99,548.75c3.54-11.6,6.61-21.69,9.69-31.78-.33-.12-.65-.24-.98-.36-3.28,7.99-6.57,15.99-9.99,24.32-3.43-1.57-6.02-3.27-8.85-3.92-2.68-.61-5.62-.13-8.92-.13,8.24-29.78,15.01-60.23,28.24-89.48,4.75,6.81,9.06,12.86,13.22,19.02,1.32,1.95,2.55,2.89,4.86,1.5,4.42-2.66,9.02-5.03,13.35-7.83,2-1.3,3.54-3.31,5.29-5-.32-.35-.64-.71-.95-1.06-6.21,3.37-12.41,6.74-19.24,10.45-4.75-9.08-9.35-17.86-14.24-27.21-5.6,3.31-11.43,6.46-16.89,10.17-1.79,1.22-3.28,3.76-3.73,5.93-4.91,23.79-9.58,47.64-14.33,71.47-1.46,7.3-2.95,14.59-4.43,21.89.21.4.42.8.63,1.19,9.11-7.43,18.08-7.28,27.27.84ZM242.09,549.02c8.78-6.57,17.45-10.19,27.23-.68-.42-3-.52-4.12-.75-5.21-3.11-15.15-6.38-30.27-9.33-45.46-2.84-14.67-5.32-29.42-8.05-44.12-.35-1.88-.64-4.5-1.91-5.35-5.88-3.94-12.09-7.37-18.5-11.17-5.16,9.46-9.98,18.29-14.98,27.45-6.61-3.73-12.71-7.18-18.8-10.62-.23.38-.46.77-.69,1.15,5.06,6.56,12.65,9.69,19.62,13.6.72.4,2.83-.74,3.69-1.71,1.86-2.1,3.55-4.43,4.91-6.88,2.2-3.98,6.08-4.15,9.57-3.82,1.49.14,3.01,2.97,3.99,4.85,1.64,3.17,3.12,6.47,4.22,9.86,4.58,14.08,9.16,28.17,13.38,42.36,2.34,7.88,3.97,15.97,5.73,23.18-4.51.84-8.4.86-11.64,2.33-4.39,1.99-6.52,1.26-8.21-3.26-2.33-6.26-5.22-12.31-7.87-18.46-.42.16-.84.32-1.25.48,3.09,10.1,6.17,20.2,9.63,31.49ZM283.22,321.72c-8.07,7.31-15.86,14.25-23.45,21.41-.65.62-.47,3.27.28,4.04,6.15,6.27,12.59,12.27,18.82,18.46,3.23,3.2,5.82,2.97,8.56-.64,1.28-1.69,3.24-2.85,4.75-4.39,5.17-5.28,10.28-10.62,15.68-16.21-8.23-7.57-16.27-14.97-24.65-22.68ZM393.5,338.24l.11.75c2.62.38,5.22.9,7.85,1.11,2.82.22,5.66.29,8.48.19,6.81-.24,10.8-5.46,9.17-11.8-7.2-27.94-19.45-53.73-33.63-78.69-.48-.85-1.3-1.5-2.53-2.89-.94,11.01-1.8,21.03-2.66,31.05.45.08.9.17,1.35.25,1.23-2.41,2.45-4.82,3.94-7.75,8.66,21.62,17.07,42.64,25.83,64.51-6.69,1.22-12.3,2.25-17.91,3.27ZM192.13,207.3c9.08.78,18.13,1.56,27.18,2.34.05-.43.1-.87.14-1.3-3.93-.73-7.86-1.45-12.76-2.35,2.27-.53,3.48-.82,4.69-1.1-7.59-3.74-15.35-6.5-23.12-9.21-8.65-3.02-9.04-3.51-9.56-13.03-.13-2.33-.06-4.66-.21-6.98-.08-1.18-.46-2.33-.71-3.5-.67-.06-1.35-.12-2.02-.18-1.35,7.15-2.7,14.31-4.14,21.9-10.19.49-20.75,1.01-31.31,1.52,1.11,1.37,2.2,1.7,3.32,1.88,8.53,1.41,17.1,2.63,25.59,4.28,2.4.46,5.65,1.53,6.66,3.35,6.47,11.69,16.19,20.2,26.53,28.09,3.82,2.91,8.26,5.01,12.42,7.48.31-.4.63-.8.94-1.2-11.68-7.58-20.15-17.56-23.62-31.99ZM78.4,161.89c2.61,0,4.57,0,6.54,0,10.75,0,10.84.01,11.35-10.58.2-4.22,2.13-5.99,6.26-5.85,3.88.13,7.78.03,12.22.03-1.67-3.32-3-5.79-4.17-8.33-1.26-2.72-2.1-5.67-3.65-8.19-.77-1.25-2.66-2.39-4.13-2.52-4.47-.39-8.98-.26-13.48-.32-5.47-.07-10.63,4.08-10.84,9.51-.33,8.46-.09,16.94-.09,26.27ZM424.25,196.38c.03-.52.07-1.04.1-1.56h-30.43c-1.65-8.46-3.14-16.13-4.63-23.81-.58.08-1.16.16-1.74.24,0,6.43.21,12.88-.16,19.29-.09,1.54-1.88,3.97-3.28,4.3-10.38,2.45-19.76,7.17-29.05,12.14-.13.07-.04.55-.07,1.21,8.35-.74,16.64-1.48,24.94-2.22.29.48.59.97.88,1.45-8.79,10.28-17.57,20.56-25.89,30.29-.25.08.55-.05,1.21-.43,12.9-7.43,24-16.77,31.15-30.1,1.75-3.25,3.98-4.65,7.65-5.24,9.82-1.56,19.55-3.67,29.32-5.56ZM449.58,207.23v-41.6c-4.71,0-8.67.15-12.62-.05-3.34-.16-5.16.43-5.25,4.49-.1,4.32,1.88,5.08,5.41,4.85,1.24-.08,2.51.22,3.83.36,0,7.71.02,15.02,0,22.32q-.02,8.92-8.87,10.35c-.15,2.42-.3,4.94-.47,7.79h23.98v-7.85c-2.08-.23-3.68-.41-6-.67ZM487.43,148.25c0-4.55.91-8.66-.25-12.06-1.18-3.47-3.91-8.19-6.82-8.92-5.97-1.49-12.52-.71-18.83-.73-.65,0-1.6.74-1.91,1.38-2.71,5.6-5.32,11.26-8.04,17.1,6.94,1.21,13.3-1.06,19.74,2.81,3.78,2.27,10.04.41,16.12.41ZM333.19,590c.35.04.7.08,1.04.11-.52-5.17-1.06-10.35-1.56-15.52-1.02-10.65-5.03-18.96-15.98-22.96-4.08-1.49-7.34-4.13-11.78-.78-3.26,2.46-7.12,4.12-11.24,6.44,7.77,5.17,7.94,5.69,4.16,12.5-1.16,2.1-2.64,4.02-3.97,6.02.46.41.93.83,1.39,1.24.76-1.22,1.27-2.73,2.31-3.62,4.64-3.98,9.39-7.84,14.19-11.65,2.85-2.26,4.98-1.53,6.72,1.67,4.82,8.89,9.8,17.69,14.71,26.53ZM231.46,590.84c.37.1.74.2,1.11.29.37-.5.82-.95,1.1-1.5,3.57-6.94,6.78-14.08,10.74-20.8,5.81-9.87,6.92-9.97,16.4-3.07,2.92,2.12,5.45,4.77,8.15,7.18.25-.24.49-.48.74-.72-2.22-3-4.44-5.99-6.93-9.36,3.07-1.89,5.9-3.63,9.64-5.95-5.4-2.91-9.68-5.43-14.17-7.51-1.27-.59-3.27-.23-4.72.29-11.92,4.27-19.48,12.02-20.23,25.34-.3,5.28-1.2,10.53-1.83,15.79ZM121.22,215.23v-49.59c-3.32,0-6.15.28-8.9-.06-4.69-.58-6.26,1.73-5.16,5.7.54,1.96,2.63,3.5,4.02,5.23.52-.25,1.03-.49,1.55-.74v39.45h8.5ZM276.21,384c-9.04-9.16-17.81-18.07-26.93-27.31-3.55,3.3-7.29,6.78-11.04,10.27.2.25.41.5.61.75,1.4-.7,2.8-1.39,4.22-2.1,8.07,8.78,15.98,17.38,24.05,26.17,3.55-3.04,6.52-5.58,9.08-7.77ZM186.76,584.6c1.41-1.97,2.9-3.89,4.22-5.92,3.37-5.15,6.69-10.33,9.99-15.53,2.1-3.31,4.72-4.01,7.96-1.7,3.17,2.27,6.3,4.61,9.44,6.92l.4-.36c-.97-1.24-1.94-2.47-2.84-3.62.46-1.72.9-3.37,1.47-5.52-1.66.41-2.62.65-3.59.88-.12-.28-.24-.55-.35-.83,3.25-2.1,6.5-4.2,9.77-6.3-7.72-8.34-17.78-8.18-24.86.35-7.48,9-10.59,19.78-11.61,31.64ZM230.56,176.74c1.58-.34,4.41-.7,7.04-1.65,1.02-.37,2.36-2.18,2.2-3.11-1.15-6.86-3.44-13.56-9.63-17.24-2.66-1.58-7.3-1.74-10.16-.51-2.37,1.03-4.5,4.9-4.9,7.77-1.05,7.46,6.48,14.83,15.44,14.74ZM299.56,392.54c.8-1.24,1.76-3.01,3-4.57,5.15-6.49,10.33-12.97,15.61-19.35,5.14-6.21,5.13-6.64-2.19-12.27-8.69,9.25-17.44,18.56-26.14,27.83,2.52,2.17,5.5,4.73,9.72,8.37ZM342.67,552.92c3.06,2.05,5.78,3.92,8.55,5.74,2.78,1.83,5.23,4.86,9.23,2.02.51-.36,2.99,1.12,3.81,2.28,3.83,5.42,7.4,11.03,11.08,16.56,1.21,1.81,2.47,3.59,3.7,5.39.42-.26.85-.51,1.27-.77-2.05-13.01-5.88-25.36-16.36-34.41-5.81-5.02-16.31-3.2-21.28,3.19ZM441.44,244.38c0,8.41.06,16.52-.02,24.62-.07,8.03.02,8.16,8.17,6.88v-40.28h-17.66v8.04c3.14.24,6.05.47,9.51.73ZM336.6,175.25c8.66-.08,14.31-5.34,13.79-12.7-.33-4.66-3.48-7.25-7.18-8.67-1.86-.71-5.19-.08-6.67,1.25-2.76,2.5-5.06,5.75-6.83,9.07-3.5,6.54-.49,11.11,6.9,11.04ZM134.03,258.8v-8.19h-21.24c0,6.65,0,12.78,0,18.92,0,7.39.88,8,8.59,5.8.05-.93.14-1.91.17-2.89.09-3.98-1.34-9.3.67-11.56,2.02-2.27,7.47-1.48,11.81-2.08ZM119.21,569.51c-22.6-6.74-42.5-18.14-58.78-35.18-16.54-17.31-25.29-38.39-28.06-63.16-6.71,38.49,47.59,99.35,86.84,98.33ZM360.45,167.95c-5.93,12.58-14.94,20.27-29.11,19.77-4.24-.15-7.67-.18-10.38,3.76-2.12,3.08-4.98,5.65-7.51,8.45.35.33.7.67,1.06,1,1.05-.71,2.1-1.42,3.13-2.15,4.92-3.47,9.75-6.16,16.43-5.33,8.46,1.05,15.42-3.03,21.14-9.2,4.52-4.88,7.73-11.38,15.42-12.93-3.41-1.13-6.81-2.27-10.17-3.39ZM86.97,191.33c10.24-.24,9.22,1.97,9.32-9.73,0-.17-.02-.33,0-.5.29-2.86-1.2-3.82-3.85-3.78-3.65.06-7.33-.28-10.93.12-1.2.13-3.01,1.94-3.16,3.15-1.23,10.38-.87,10.72,8.62,10.73ZM170.9,498c-1.57-5.56-3.33-10.91-8.7-14.22-3.1-1.91-5.75-4.67-8.99-6.23-11.23-5.41-16.68-14.1-16.65-26.57,0-1.73-2.07-3.47-3.18-5.2-.58.31-1.17.63-1.76.94,1.82,8.51,3.63,17.02,5.37,25.16,1.34.17,2.92-.11,3.69.55,9.98,8.6,24.42,11.98,30.21,25.57ZM449,569.26c24.55-1.71,62.1-29.01,69.61-50.16-18.46,23.5-40.3,41.97-69.61,50.16ZM434.43,447.01c-.51-.33-1.02-.67-1.53-1-1.1,1.88-2.6,3.65-3.2,5.68-1.08,3.65-1.92,7.43-2.28,11.22-.37,3.88-2.34,6.27-5.38,8.35-6.59,4.49-12.95,9.32-19.6,13.71-4.68,3.09-5.61,8-7.52,12.48,2.23-2.69,3.67-6.23,6.29-8.22,8.05-6.13,16.61-11.59,24.84-17.5,1.66-1.19,3.42-3.04,3.93-4.91,1.77-6.52,3.02-13.19,4.46-19.81ZM121.72,307.89c0-.66.01-1.33,0-1.99-.07-3.16,1.05-6.61-4.58-6.5-5.44.1-4.03,3.53-4.17,6.41-.1,1.98.12,3.99-.04,5.96-.26,3.25.64,4.79,4.35,4.74,3.51-.05,4.83-1.25,4.47-4.64-.14-1.31-.02-2.65-.03-3.97ZM442.15,299.99v16.01h8.16c0-3.27,0-6.23,0-9.19q-.01-7.71-8.16-6.82ZM313.89,334.77c.5.67,1.01,1.34,1.51,2.01,11.14-5.63,19.87-14.75,29.82-22.09.59-.43.44-1.86.63-2.82-.45-.35-.89-.69-1.34-1.04-10.21,7.98-20.42,15.96-30.62,23.94ZM249.79,337.58c.5-.29,1-.58,1.5-.87-.55-1.19-.79-2.73-1.69-3.51-5.52-4.79-11.18-9.42-16.83-14.06-3.08-2.53-6.17-5.07-9.41-7.37-.65-.46-2.02.11-3.06.2.28.86.3,2.04.89,2.52,9.49,7.75,19.05,15.41,28.6,23.09ZM213.52,266.6c12.58,13.62,27.34,24.3,43.02,33.72.37-.51.75-1.02,1.12-1.53-14.72-10.73-29.43-21.46-44.15-32.19ZM353.35,265.57c-15.01,11.22-30.02,22.43-45.03,33.65.33.43.66.87.99,1.3,16.03-9.94,30.77-21.58,44.04-34.95ZM326.86,408.46c-.35-.44-.69-.88-1.04-1.32-1.91,1.22-4.93,2.04-5.54,3.73-1.7,4.76-2.42,9.87-3.52,14.84.43.42.86.84,1.29,1.26,1.49-1.13,3.78-1.96,4.33-3.44,1.83-4.9,3.03-10.03,4.48-15.08ZM161.87,466.43c-10.98-3.65-10.02-13.23-11.81-21.65-1.22-5.72-3.5-11.22-5.31-16.82-.43.15-.87.29-1.3.44.4,1.75.8,3.49,1.2,5.24,1.68,7.28,3.61,14.51,4.97,21.85,1.35,7.3,3.54,9.72,12.24,10.94ZM262.42,415.03c.7.65,1.39,1.31,2.09,1.96,4.74-5.33,9.51-10.63,14.2-16,2.58-2.95,4.78-3.37,7.7-.13,3.07,3.4,6.74,6.26,10.15,9.35.33-.37.66-.73.99-1.1-5.13-4.87-10.25-9.74-13.86-13.16-7.18,6.43-14.23,12.75-21.28,19.07ZM247.32,426.55c.67-.28,1.33-.56,2-.85-1.07-4.77-2.15-9.54-3.21-14.32-.94-4.24-3.42-4.5-6.54-3.12,2.69,6.34,5.22,12.31,7.75,18.29ZM184.41,153.43c.63.2,1.26.41,1.89.61,3.33-8.62,6.65-17.23,9.98-25.85-.58-.22-1.16-.44-1.73-.66-3.38,8.63-6.76,17.26-10.14,25.9ZM253.75,320.22c.48.54.95,1.08,1.43,1.62,5.58-4.42,11.17-8.84,16.75-13.25-.5-.63-1-1.26-1.5-1.9-5.56,4.51-11.12,9.02-16.68,13.53ZM296.32,306.68c-.42.53-.84,1.05-1.26,1.58,5.47,4.6,10.94,9.2,16.41,13.8.43-.54.86-1.08,1.3-1.62-5.55-4.5-10.24-10.07-16.44-13.76ZM203.88,280l-1.18.7c3.31,7.21,6.27,14.62,11.96,20.42.37-.22.73-.44,1.1-.65l-11.88-20.46ZM226.9,342.35c-.49.65-.98,1.31-1.47,1.96,3.7,2.71,7.39,5.41,11.09,8.12l1.29-1.73c-3.64-2.78-7.27-5.56-10.91-8.35ZM415.33,453.29c.34.07.69.13,1.03.2,1.56-7.13,3.12-14.26,4.68-21.38-.51-.1-1.02-.2-1.54-.3-1.39,7.16-2.78,14.32-4.17,21.48ZM351.87,299.38c.47.23.94.47,1.42.7,3.2-6.05,6.4-12.1,9.6-18.15-.4-.21-.8-.42-1.2-.62-3.27,6.02-6.54,12.05-9.82,18.07Z"/><path class="cls-2" d="M330.77,83.25c-3.02,2.07-5.55,3.86-8.13,5.55-4.3,2.82-8.78,5.39-12.93,8.41-4.14,3-3.15,5.36.51,8.82,3.71,3.51,6.8,8.21,8.57,12.97.74,1.99.57,5.2,1.28,7.74.94,3.33,2.27,6.54,3.47,9.89,11.98-5.14,22.43-5.29,32.58,1.02-1.09-.18-2.17-.36-3.26-.56-15.85-2.8-26.74,1.35-34.54,15.47-5.34,9.66-8.55,20.5-12.66,30.84-.26.66-.03,1.51-.03,2.71,2.48-1.41,4.59-2.61,5.51-3.13-.88,4.49-1.97,9.69-2.9,14.91-1.24,6.94-2.35,13.9-3.58,21.27,4.72,1.45,5.06,5.52,4.27,10.12-1.07,6.27-7.53,12.95-13.61,13.78-1.13.15-3.13-.28-3.41-.97-.46-1.14-.35-3.18.42-4.02,1.87-2.06,4.13-4.94,6.45-5.16,4.99-.47,4.86-4.02,5.86-7.11.3-.94.34-1.96.5-2.94-7.21-5.08-9.25-5.23-16.28.24-3.82,2.97-7.26,3.51-11.3.72-1.91-1.32-4.01-2.85-6.18-3.15-2.7-.37-6.02-.36-8.24.92-3.05,1.77-2.33,5.2-.86,8.06.89,1.73,2.01,3.35,3.32,5.49.76-1.37,1.17-2.12,1.18-2.14,2.17,2.29,4.42,4.67,7.18,7.58-1.12,4.62-4.5,4.11-9.75,3.33-12.45-1.85-18.5-10.07-23.02-20.26-.9-2.02.15-4.86-.58-7.02-1.75-5.17-5.4-8.63-10.78-10.23-6.38-1.9-12.75-3.88-19.04-6.05-1.41-.49-3.64-2-3.57-2.88.66-7.92-6.47-11.58-9.3-17.55-1.53-3.22-4.23-5.88-6.47-8.88,4.32-.86,9.06-1.81,13.31-2.66,3.58,4.41,6.8,9.24,10.88,13.18,5.84,5.64,13.18,7.75,21.23,5.91,3.53-.81,5.91-.12,8.14,2.83,2.48,3.28,5.51,6.14,9.35,8.76-1.44-5.74-2.88-11.48-4.72-18.81,4.1,2.23,7.11,3.87,10.95,5.96-5.32-14.41-8.04-29.07-18.61-40.44-8.14-8.75-17.72-11.28-29.01-8.16-3.33.92-6.58,2.12-9.09,2.94.46-2.58,1.23-5.25,1.33-7.95.16-4.18-.19-8.37-.22-12.56,0-.78.23-1.84.76-2.32,5.34-4.78,5.38-12.23,9.07-17.82.46-.69.56-1.7,1.14-2.2,6.18-5.29,2.65-9.96-1.25-14.08-1.65-1.74-4.55-2.52-7.04-3.16-1.94-.5-4.11-.1-7.14-.1,0,1.88-.06,4.39.01,6.9.23,8.94.6,17.89.69,26.83.02,1.85-.92,3.72-1.78,6.9-1.25-8.41-2.33-15.32-3.3-22.24-2.35-16.78-10.23-30.52-23.43-40.94-10.98-8.66-20.48-7.92-30.95,1.49-5.22,4.69-9.61,11.82-10.47,17.25,3.51-2.37,6.85-4.63,10.4-7.03-4.56,30.15,5.26,54.61,27.51,75.94-7.9-1.48-14.61-2.74-21.32-4,6.13,7.18,14.64,8.64,22.95,10.57-4.25,8.23-6.58,9.23-14.77,6.41-23.66-8.16-35.92-25.61-39.15-49.61-2.34-17.45.92-34.25,9.5-49.75,11.1-20.06,36.56-27.74,58.79-18.03,18.02,7.86,30.5,21.63,40.52,37.96,3.04,4.95,5.57,10.21,8.35,15.33,4.32-4.2,4.59-7.4.94-10.77,13.21-14.07,77.25-14.78,95.72-.32Z"/><path class="cls-2" d="M207.34,446.17c-4.97-2.2-9.57-4.12-14.04-6.3-1.21-.59-2.44-1.78-2.98-2.99-11.97-26.9-23.85-53.84-35.72-80.78-.57-1.3-.89-2.72-1.72-5.33,5.96.59,10.99,1.04,16,1.65.65.08,1.26.96,1.77,1.56.42.5.62,1.19,1.03,1.71,2.79,3.51,5.12,7.62,8.55,10.34,5.02,3.98,6.76-5.09,12.61-2.49-3.99-11.25-7.45-20.99-10.92-30.78-.48.24-.96.36-.98.51-.52,5.87-3.78,7.59-9.36,6.89-3.77-.47-7.72-.5-11.46.11-5.42.87-9.17-2.17-13.17-4.69-.79-.49-1.37-2.33-1.12-3.3,7.91-30.12,19.3-58.77,36.47-84.92.14-.22.56-.25,1.14-.5,1.44,11.96,2.88,23.83,4.39,36.34-4.19-2.49-7.21-1.71-9.32,2.95,7,9.08,11.63,20.46,21.85,27.59,1.19.83,2.1,2.52,2.48,3.98,7.55,29.16,15.03,58.34,22.43,87.54.45,1.8.72,4.13-.03,5.66-5.78,11.77-11.84,23.41-17.9,35.24ZM196.82,411.22c-.63-1.03-1.39-1.91-1.78-2.94-3.25-8.55-6.98-16.97-9.48-25.74-3.08-10.8-12.08-16.35-19.25-23.51-1.64-1.64-4.77-1.8-8.27-3.01,4.3,10.2,7.9,19.42,12.03,28.39,7.29,15.87,14.78,31.65,22.44,47.34,3.07,6.28,12.17,6.46,15.64.66,2.91-4.85,5.54-9.9,8.87-14.45,4.88-6.68,3.17-13.15.21-19.68-1.93-4.25-5.93-4.38-8.8-.76-3.65,4.6-7.58,8.98-11.6,13.7Z"/><path class="cls-2" d="M366.28,117.61c-.96-5.42-2.11-10.81-2.82-16.26-.81-6.19-3.47-8.26-10.83-6.6,1.89-1.54,2.87-2.33,3.16-2.57-2.81-2.61-5.68-5.29-8.89-8.27-4.55,4.29-9.07,8.54-13.58,12.8-.38-.24-.76-.48-1.15-.72,2.87-6.05,5.29-12.37,8.69-18.1,10.24-17.31,23.44-31.48,43.1-38.29,23.36-8.09,45.97-.07,56.58,22.18,12.92,27.09,12.74,54.21-5.75,79.34-7.73,10.5-18.97,15.93-31.35,19.09-1.09.28-2.84-.46-3.72-1.3-1.89-1.83-3.41-4.03-5.71-6.85,10.19-1.83,19.38-4.61,26.66-11.68-6.89,1.56-13.78,3.12-20.67,4.67,19.47-20.68,29.52-46.47,24.62-76.17,4.03,3.19,7.46,5.9,11.03,8.73-.14-.76-.04-1.91-.55-2.65-3.87-5.56-7.17-11.74-11.96-16.39-9.15-8.89-20.92-8.86-30.62-.56-16.26,13.91-23.68,32.09-24.75,53.14-.11,2.08-.01,4.17-.01,6.25-.49.07-.98.15-1.47.22Z"/><path class="cls-2" d="M486.02,375.99c-.53-6.43-1.05-12.86-1.58-19.28-.2-.01-.41-.02-.61-.04v11.28c-.35.02-.7.04-1.04.06-.15-3.06-.31-6.12-.46-9.16-9.45.36-11.47,2.33-11.53,11.06-.04,5.32,0,10.63,0,15.95-.57,0-1.14,0-1.71,0,0-19.38.03-38.77,0-58.15-.08-52.14-.2-104.27-.29-156.41-.01-7.81.01-7.82,7.66-7.84,3.46,0,6.91,0,10.25,0v212.52c-.22,0-.44,0-.67,0Z"/><path class="cls-2" d="M388.62,288.9c-4.04,6.14-7.77,12.51-12.25,18.31-2.25,2.91-2.55,5.09-.64,7.91.19.27.27.62.48.87,8.57,10.39,6.76,21.3,1.78,32.46-1.89,4.24-3.4,8.66-5.15,13.16.64.41,1.15.8,1.71,1.08,3.07,1.56,6.92,5.05,9.05,4.21,3.48-1.38,6.82-5.13,8.44-8.69,3-6.57,8.12-6.91,13.9-6.71,1.94.07,3.88.17,6.69.3-1.57,4.39-2.69,8.17-4.26,11.74-10.64,24.23-21.43,48.4-32.01,72.66-1.2,2.74-2.84,4.08-5.61,4.8-2.56.66-5.22,1.48-7.41,2.9-3.98,2.57-5.88.93-7.66-2.65-4.82-9.69-9.94-19.23-14.6-28.99-.97-2.03-1.15-4.91-.61-7.13,7.17-29.27,14.52-58.49,21.89-87.71.34-1.33,1-3.05,2.05-3.65,8.95-5.14,13.6-13.94,19.14-21.99.75-1.1,1.46-2.23,2.27-3.28.27-.34.8-.48,1.22-.71.53.37,1.06.75,1.58,1.12ZM408.67,356.29c-2.48-.11-3.42-.23-4.34-.18-5.71.32-7.9,5.67-11.95,8.32-7.73,5.07-11.62,12.33-13.98,20.97-1.86,6.81-4.53,13.39-6.4,18.82-6.27.45-11.64.18-16.69,1.34-7.9,1.81-8.9,4.44-5.46,11.59,2.38,4.95,4.82,9.88,7.62,14.59,1.2,2.03,3.54,5.05,5.07,4.88,3.96-.43,8.77.32,11.17-4.77,5.2-10.97,10.96-21.67,16.04-32.68,6.38-13.82,12.32-27.85,18.93-42.88Z"/><path class="cls-2" d="M79.11,206.58h16.73v206.27c-.35,0-.7,0-1.05,0v-28c-3.66,1.12-7.09,1.87-10.22,3.27-1.55.7-3.42,2.5-3.64,4.01-.52,3.71-.17,7.55-.17,11.34-.55,0-1.1,0-1.65,0v-196.9Z"/><path class="cls-2" d="M167.98,553.98c-13.08-.76-24.95-1.46-38.24-2.23,2.62,5.89,4.9,11.01,7.18,16.13-.22.14-.44.27-.65.41-2.46-4.02-4.74-8.17-7.47-12-1.21-1.7-3.15-3.55-5.06-3.97-30.3-6.62-54.83-21.86-72.11-47.93-13.02-19.65-20.1-41.28-19.52-64.93.49-20.17,8.44-38.2,18.09-55.5,2.83-5.07,6.4-9.71,9.52-14.62.89-1.4,1.37-3.05,2.03-4.59.99.75,1.97,1.5,2.96,2.24-.97,2.17-1.81,4.41-2.92,6.5-16.92,31.65-21.6,65-12.25,99.66,8.32,30.86,28.12,51.93,58.14,63.19,13.06,4.9,26.5,7.65,40.52,7.59,10.95-.05,10.95.12,19.79,10.03Z"/><path class="cls-2" d="M398.4,554.11c5.53-5.72,9.62-10.23,17.92-10.08,21.76.38,42.08-5.36,60.55-17.31,26.13-16.91,38.88-41.76,42.73-71.76,3.74-29.19-2.19-56.65-16.1-82.47-.8-1.49-1.37-3.11-2.05-4.67.38-.33.75-.67,1.13-1,1.34.89,3.11,1.48,3.97,2.71,17.71,25.33,30.22,52.7,25.89,84.38-6.7,49.12-39.71,87.22-88,97.68-4.02.87-7,2.17-8.34,6.55-.84,2.74-2.87,5.12-5.16,7.3,1.78-4.25,3.57-8.5,5.74-13.69-13.02.8-25.12,1.55-38.28,2.36Z"/><path class="cls-2" d="M152.31,413.71c-1.44-.82-3.03-1.46-4.27-2.52-2.33-1.99-3.93-4.35-7.79-4.54-2.8-.14-6.86.59-9-3.24-.23-.41-4.08.84-5.95,1.86-.86.47-1,2.26-2.52,3.3.19-2.07.38-4.15.57-6.22-.52.01-1.04.03-1.56.04.48,7.04.97,14.09,1.45,21.13-.32.38-.63.76-.95,1.15-2.43-3.17-4.86-6.34-7.29-9.52-.51.21-1.02.43-1.53.64.8,9.44,1.12,18.95,2.53,28.29,1.44,9.53,3.87,18.92,6.02,28.33,2.11,9.25,10.26,16.39,8.66,27.31-2.54-3.52-5.32-6.89-7.58-10.57-7-11.38-10.95-24.02-13.16-37-6.58-38.75.66-74.88,21.89-108.09.27-.42.57-.83.92-1.18.22-.22.56-.31,1.26-.66,11.5,49.29,35.49,93.55,54.27,139.98-11.71-23.16-23.42-46.33-35.12-69.49-.28.33-.57.66-.85.99Z"/><path class="cls-2" d="M424.33,509.62c-.06-.81-.5-1.95-.13-2.39,22.53-26.36,27.51-58.18,28.51-91.25,0-.13-.17-.27-.8-1.23-2.19,2.97-4.29,5.82-6.39,8.66-.52-.38-1.05-.76-1.57-1.14,2.99-19.03-2.8-36.25-10.31-53.6-19.68,40.57-39.11,80.64-58.54,120.7,18.68-49.3,45.49-95.38,57-147.76.6.64,1.23,1.14,1.63,1.78,24.16,38.02,30.93,78.89,19.4,122.49-3.66,13.84-11.01,26.01-20.16,37-1.63,1.96-4.14,3.19-6.22,4.74-.8.66-1.61,1.34-2.43,2.01Z"/><path class="cls-2" d="M323.99,548.75c-9.19-8.12-18.16-8.27-27.27-.84-.21-.4-.42-.8-.63-1.19,1.48-7.3,2.97-14.59,4.43-21.89,4.75-23.83,9.42-47.67,14.33-71.47.45-2.18,1.94-4.71,3.73-5.93,5.45-3.71,11.29-6.86,16.89-10.17,4.89,9.35,9.49,18.13,14.24,27.21,6.83-3.71,13.03-7.08,19.24-10.45.32.35.64.71.95,1.06-1.75,1.69-3.29,3.7-5.29,5-4.33,2.8-8.93,5.17-13.35,7.83-2.31,1.39-3.54.45-4.86-1.5-4.17-6.15-8.47-12.21-13.22-19.02-13.23,29.25-20,59.7-28.24,89.48,3.3,0,6.24-.48,8.92.13,2.83.65,5.43,2.35,8.85,3.92,3.42-8.33,6.71-16.33,9.99-24.32.33.12.65.24.98.36-3.08,10.09-6.16,20.19-9.69,31.78Z"/><path class="cls-2" d="M242.09,549.02c-3.45-11.29-6.54-21.39-9.63-31.49.42-.16.84-.32,1.25-.48,2.65,6.14,5.53,12.2,7.87,18.46,1.68,4.52,3.81,5.25,8.21,3.26,3.24-1.47,7.13-1.49,11.64-2.33-1.76-7.21-3.39-15.3-5.73-23.18-4.22-14.19-8.81-28.27-13.38-42.36-1.1-3.39-2.58-6.69-4.22-9.86-.98-1.88-2.49-4.71-3.99-4.85-3.49-.33-7.37-.16-9.57,3.82-1.36,2.46-3.04,4.78-4.91,6.88-.86.97-2.97,2.12-3.69,1.71-6.97-3.9-14.56-7.04-19.62-13.6.23-.38.46-.77.69-1.15,6.1,3.44,12.19,6.89,18.8,10.62,5-9.16,9.81-17.99,14.98-27.45,6.4,3.8,12.62,7.23,18.5,11.17,1.27.85,1.56,3.47,1.91,5.35,2.72,14.7,5.2,29.44,8.05,44.12,2.94,15.18,6.21,30.31,9.33,45.46.22,1.09.32,2.21.75,5.21-9.78-9.51-18.46-5.89-27.23.68ZM254.37,483.5c-.39-2.59-.62-5.36-1.23-8.05-2.19-9.6-.6-21.28-13.53-25.11-.14-.04-.3,0-.69,0,5.15,11.05,10.26,22.01,15.45,33.16Z"/><path class="cls-2" d="M283.22,321.72c8.38,7.71,16.42,15.11,24.65,22.68-5.4,5.59-10.51,10.93-15.68,16.21-1.51,1.54-3.47,2.7-4.75,4.39-2.74,3.61-5.33,3.84-8.56.64-6.24-6.19-12.67-12.19-18.82-18.46-.75-.77-.93-3.42-.28-4.04,7.58-7.17,15.37-14.11,23.45-21.41Z"/><path class="cls-2" d="M393.5,338.24c5.61-1.03,11.22-2.05,17.91-3.27-8.75-21.86-17.17-42.89-25.83-64.51-1.49,2.94-2.72,5.35-3.94,7.75-.45-.08-.9-.17-1.35-.25.86-10.02,1.72-20.05,2.66-31.05,1.23,1.38,2.04,2.04,2.53,2.89,14.18,24.96,26.43,50.74,33.63,78.69,1.63,6.34-2.36,11.57-9.17,11.8-2.82.1-5.67.03-8.48-.19-2.63-.21-5.24-.73-7.85-1.11l-.11-.75Z"/><path class="cls-2" d="M192.13,207.3c3.48,14.43,11.94,24.41,23.62,31.99-.31.4-.63.8-.94,1.2-4.16-2.47-8.6-4.57-12.42-7.48-10.34-7.89-20.06-16.4-26.53-28.09-1.01-1.82-4.26-2.89-6.66-3.35-8.49-1.64-17.06-2.87-25.59-4.28-1.12-.18-2.21-.51-3.32-1.88,10.56-.51,21.12-1.03,31.31-1.52,1.43-7.59,2.78-14.74,4.14-21.9.67.06,1.35.12,2.02.18.25,1.16.63,2.32.71,3.5.16,2.32.09,4.66.21,6.98.52,9.53.91,10.01,9.56,13.03,7.77,2.71,15.53,5.47,23.12,9.21-1.21.28-2.41.57-4.69,1.1,4.9.9,8.83,1.63,12.76,2.35-.05.43-.1.87-.14,1.3-9.05-.78-18.09-1.56-27.18-2.34Z"/><path class="cls-2" d="M78.4,161.89c0-9.32-.25-17.81.09-26.27.21-5.43,5.37-9.58,10.84-9.51,4.5.06,9.01-.07,13.48.32,1.47.13,3.37,1.27,4.13,2.52,1.55,2.53,2.4,5.47,3.65,8.19,1.17,2.54,2.5,5.01,4.17,8.33-4.44,0-8.33.1-12.22-.03-4.13-.13-6.06,1.64-6.26,5.85-.5,10.6-.6,10.59-11.35,10.58-1.96,0-3.93,0-6.54,0Z"/><path class="cls-2" d="M424.25,196.38c-9.77,1.89-19.5,4-29.32,5.56-3.66.58-5.9,1.98-7.65,5.24-7.15,13.33-18.25,22.67-31.15,30.1-.66.38-1.46.51-1.21.43,8.31-9.73,17.1-20.01,25.89-30.29-.29-.48-.59-.97-.88-1.45-8.29.74-16.58,1.47-24.94,2.22.03-.66-.06-1.14.07-1.21,9.29-4.97,18.66-9.69,29.05-12.14,1.4-.33,3.19-2.76,3.28-4.3.37-6.41.16-12.86.16-19.29.58-.08,1.16-.16,1.74-.24,1.49,7.68,2.99,15.36,4.63,23.81h30.43c-.03.52-.07,1.04-.1,1.56Z"/><path class="cls-2" d="M449.58,207.23c2.32.26,3.92.44,6,.67v7.85h-23.98c.17-2.85.33-5.37.47-7.79q8.83-1.43,8.87-10.35c.02-7.31,0-14.61,0-22.32-1.32-.13-2.59-.44-3.83-.36-3.53.23-5.51-.53-5.41-4.85.09-4.06,1.91-4.66,5.25-4.49,3.95.19,7.92.05,12.62.05v41.6Z"/><path class="cls-2" d="M487.43,148.25c-6.07,0-12.33,1.86-16.12-.41-6.44-3.87-12.8-1.59-19.74-2.81,2.73-5.84,5.33-11.5,8.04-17.1.31-.64,1.26-1.39,1.91-1.38,6.31.02,12.86-.75,18.83.73,2.91.72,5.64,5.45,6.82,8.92,1.16,3.4.25,7.51.25,12.06Z"/><path class="cls-2" d="M333.19,590c-4.91-8.84-9.89-17.64-14.71-26.53-1.74-3.21-3.88-3.93-6.72-1.67-4.79,3.8-9.55,7.66-14.19,11.65-1.04.89-1.55,2.4-2.31,3.62-.46-.41-.93-.83-1.39-1.24,1.33-2,2.81-3.92,3.97-6.02,3.78-6.82,3.61-7.33-4.16-12.5,4.12-2.32,7.98-3.98,11.24-6.44,4.44-3.35,7.7-.71,11.78.78,10.96,4,14.96,12.31,15.98,22.96.5,5.18,1.04,10.35,1.56,15.52-.35-.04-.7-.08-1.04-.11Z"/><path class="cls-2" d="M231.46,590.84c.63-5.26,1.53-10.51,1.83-15.79.75-13.32,8.31-21.07,20.23-25.34,1.45-.52,3.45-.88,4.72-.29,4.49,2.08,8.77,4.6,14.17,7.51-3.75,2.31-6.57,4.05-9.64,5.95,2.49,3.36,4.71,6.36,6.93,9.36-.25.24-.49.48-.74.72-2.71-2.41-5.24-5.06-8.15-7.18-9.47-6.9-10.58-6.8-16.4,3.07-3.95,6.71-7.17,13.86-10.74,20.8-.28.54-.73,1-1.1,1.5-.37-.1-.74-.2-1.11-.29Z"/><path class="cls-2" d="M121.22,215.23h-8.5v-39.45c-.52.25-1.03.49-1.55.74-1.39-1.73-3.48-3.27-4.02-5.23-1.1-3.97.47-6.29,5.16-5.7,2.75.34,5.58.06,8.9.06v49.59Z"/><path class="cls-2" d="M276.21,384c-2.56,2.19-5.54,4.74-9.08,7.77-8.07-8.78-15.98-17.39-24.05-26.17-1.42.71-2.82,1.4-4.22,2.1-.2-.25-.41-.5-.61-.75,3.74-3.48,7.49-6.96,11.04-10.27,9.11,9.24,17.89,18.15,26.93,27.31Z"/><path class="cls-2" d="M186.76,584.6c1.02-11.86,4.13-22.64,11.61-31.64,7.08-8.52,17.14-8.69,24.86-.35-3.26,2.11-6.52,4.2-9.77,6.3.12.28.24.55.35.83.97-.24,1.93-.47,3.59-.88-.57,2.15-1.01,3.8-1.47,5.52.9,1.14,1.87,2.38,2.84,3.62l-.4.36c-3.15-2.31-6.27-4.65-9.44-6.92-3.24-2.31-5.86-1.61-7.96,1.7-3.3,5.2-6.62,10.38-9.99,15.53-1.33,2.03-2.81,3.95-4.22,5.92Z"/><path class="cls-2" d="M230.56,176.74c-8.96.09-16.49-7.28-15.44-14.74.4-2.87,2.53-6.74,4.9-7.77,2.86-1.24,7.5-1.08,10.16.51,6.19,3.69,8.47,10.38,9.63,17.24.16.93-1.18,2.75-2.2,3.11-2.63.95-5.46,1.31-7.04,1.65Z"/><path class="cls-2" d="M299.56,392.54c-4.22-3.64-7.2-6.2-9.72-8.37,8.7-9.26,17.45-18.58,26.14-27.83,7.32,5.63,7.33,6.06,2.19,12.27-5.28,6.39-10.46,12.86-15.61,19.35-1.23,1.55-2.19,3.33-3,4.57Z"/><path class="cls-2" d="M342.67,552.92c4.97-6.4,15.47-8.21,21.28-3.19,10.48,9.05,14.31,21.4,16.36,34.41-.42.26-.85.51-1.27.77-1.24-1.79-2.5-3.57-3.7-5.39-3.68-5.53-7.24-11.14-11.08-16.56-.82-1.16-3.3-2.64-3.81-2.28-4.01,2.84-6.45-.2-9.23-2.02-2.76-1.81-5.49-3.68-8.55-5.74Z"/><path class="cls-2" d="M441.44,244.38c-3.46-.27-6.37-.49-9.51-.73v-8.04h17.66v40.28c-8.15,1.27-8.24,1.14-8.17-6.88.08-8.11.02-16.21.02-24.62Z"/><path class="cls-2" d="M336.6,175.25c-7.39.07-10.4-4.5-6.9-11.04,1.78-3.32,4.07-6.56,6.83-9.07,1.48-1.34,4.81-1.96,6.67-1.25,3.71,1.41,6.85,4,7.18,8.67.52,7.36-5.13,12.62-13.79,12.7Z"/><path class="cls-2" d="M134.03,258.8c-4.35.61-9.8-.18-11.81,2.08-2.01,2.26-.58,7.58-.67,11.56-.02.98-.11,1.96-.17,2.89-7.71,2.2-8.59,1.59-8.59-5.8,0-6.14,0-12.27,0-18.92h21.24v8.19Z"/><path class="cls-2" d="M119.21,569.51c-39.25,1.02-93.55-59.84-86.84-98.33,2.76,24.77,11.52,45.85,28.06,63.16,16.28,17.04,36.18,28.43,58.78,35.18Z"/><path class="cls-2" d="M360.45,167.95c3.36,1.12,6.77,2.25,10.17,3.39-7.69,1.55-10.9,8.04-15.42,12.93-5.71,6.17-12.67,10.26-21.14,9.2-6.68-.83-11.51,1.85-16.43,5.33-1.03.73-2.09,1.43-3.13,2.15-.35-.33-.7-.67-1.06-1,2.53-2.8,5.39-5.37,7.51-8.45,2.71-3.94,6.14-3.91,10.38-3.76,14.17.5,23.18-7.19,29.11-19.77Z"/><path class="cls-2" d="M86.97,191.33c-9.5-.01-9.85-.35-8.62-10.73.14-1.21,1.96-3.01,3.16-3.15,3.6-.4,7.28-.06,10.93-.12,2.65-.04,4.14.91,3.85,3.78-.02.16,0,.33,0,.5-.09,11.69.92,9.49-9.32,9.73Z"/><path class="cls-2" d="M170.9,498c-5.8-13.59-20.23-16.97-30.21-25.57-.77-.66-2.36-.38-3.69-.55-1.74-8.14-3.55-16.65-5.37-25.16.58-.31,1.17-.63,1.76-.94,1.11,1.73,3.19,3.47,3.18,5.2-.03,12.47,5.42,21.16,16.65,26.57,3.24,1.56,5.89,4.32,8.99,6.23,5.37,3.31,7.13,8.67,8.7,14.22Z"/><path class="cls-2" d="M449,569.26c29.31-8.19,51.15-26.66,69.61-50.16-7.51,21.15-45.06,48.45-69.61,50.16Z"/><path class="cls-2" d="M434.43,447.01c-1.45,6.61-2.69,13.28-4.46,19.81-.51,1.87-2.27,3.72-3.93,4.91-8.22,5.91-16.78,11.37-24.84,17.5-2.62,1.99-4.06,5.53-6.29,8.22,1.91-4.48,2.84-9.4,7.52-12.48,6.65-4.39,13.01-9.22,19.6-13.71,3.04-2.07,5.01-4.46,5.38-8.35.36-3.78,1.21-7.57,2.28-11.22.6-2.03,2.11-3.79,3.2-5.68.51.33,1.02.67,1.53,1Z"/><path class="cls-2" d="M121.73,307.89c0,1.33-.11,2.66.03,3.97.36,3.4-.96,4.6-4.47,4.64-3.71.05-4.62-1.49-4.35-4.74.16-1.97-.06-3.98.04-5.96.14-2.88-1.27-6.3,4.17-6.41,5.63-.11,4.5,3.34,4.58,6.5.02.66,0,1.33,0,1.99Z"/><path class="cls-2" d="M442.15,299.99q8.15-.89,8.16,6.82c0,2.96,0,5.91,0,9.19h-8.16v-16.01Z"/><path class="cls-2" d="M313.89,334.77c10.21-7.98,20.42-15.96,30.62-23.94.45.35.89.69,1.34,1.04-.19.96-.05,2.39-.63,2.82-9.95,7.34-18.68,16.46-29.82,22.09-.5-.67-1.01-1.34-1.51-2.01Z"/><path class="cls-2" d="M249.79,337.58c-9.55-7.68-19.11-15.34-28.6-23.09-.59-.48-.6-1.66-.89-2.52,1.04-.09,2.41-.66,3.06-.2,3.25,2.31,6.33,4.84,9.41,7.37,5.65,4.64,11.3,9.28,16.83,14.06.9.78,1.14,2.32,1.69,3.51-.5.29-1,.58-1.5.87Z"/><path class="cls-2" d="M213.52,266.6c14.72,10.73,29.43,21.46,44.15,32.19-.37.51-.75,1.02-1.12,1.53-15.68-9.41-30.44-20.1-43.02-33.72Z"/><path class="cls-2" d="M353.35,265.57c-13.27,13.36-28.01,25.01-44.04,34.95-.33-.43-.66-.87-.99-1.3,15.01-11.22,30.02-22.43,45.03-33.65Z"/><path class="cls-2" d="M326.86,408.46c-1.44,5.04-2.65,10.18-4.48,15.08-.55,1.48-2.84,2.31-4.33,3.44-.43-.42-.86-.84-1.29-1.26,1.1-4.97,1.82-10.08,3.52-14.84.6-1.69,3.62-2.51,5.54-3.73.35.44.69.88,1.04,1.32Z"/><path class="cls-2" d="M161.87,466.43c-8.7-1.22-10.89-3.64-12.24-10.94-1.36-7.34-3.29-14.57-4.97-21.85-.4-1.75-.8-3.49-1.2-5.24.43-.15.87-.29,1.3-.44,1.81,5.6,4.09,11.09,5.31,16.82,1.79,8.42.83,18,11.81,21.65Z"/><path class="cls-2" d="M262.42,415.03c7.05-6.32,14.1-12.64,21.28-19.07,3.61,3.43,8.74,8.3,13.86,13.16-.33.37-.66.73-.99,1.1-3.41-3.09-7.09-5.95-10.15-9.35-2.93-3.25-5.12-2.82-7.7.13-4.7,5.37-9.47,10.67-14.2,16-.7-.65-1.39-1.31-2.09-1.96Z"/><path class="cls-2" d="M247.32,426.55c-2.53-5.98-5.07-11.96-7.75-18.29,3.12-1.37,5.6-1.11,6.54,3.12,1.06,4.78,2.14,9.55,3.21,14.32-.67.28-1.33.56-2,.85Z"/><path class="cls-2" d="M184.41,153.43c3.38-8.63,6.76-17.26,10.14-25.9.58.22,1.16.44,1.73.66-3.33,8.62-6.65,17.23-9.98,25.85-.63-.2-1.26-.41-1.89-.61Z"/><path class="cls-2" d="M253.75,320.22c5.56-4.51,11.12-9.02,16.68-13.53.5.63,1,1.26,1.5,1.9-5.58,4.42-11.17,8.84-16.75,13.25-.48-.54-.95-1.08-1.43-1.62Z"/><path class="cls-2" d="M296.32,306.68c6.2,3.69,10.89,9.25,16.44,13.76-.43.54-.86,1.08-1.3,1.62-5.47-4.6-10.94-9.2-16.41-13.8.42-.53.84-1.05,1.26-1.58Z"/><path class="cls-2" d="M203.88,280l11.88,20.46c-.37.22-.73.44-1.1.65-5.68-5.8-8.65-13.21-11.96-20.42l1.18-.7Z"/><path class="cls-2" d="M424.33,509.62c.81-.68,1.63-1.35,2.43-2.01.48.07.99.13,1.49.19-3.79,3.35-7.56,6.73-11.41,10-.26.22-1.17-.33-2.94-.89,3.94-2.75,7.19-5.02,10.44-7.28Z"/><path class="cls-2" d="M226.9,342.35c3.64,2.78,7.27,5.56,10.91,8.35l-1.29,1.73c-3.7-2.71-7.39-5.41-11.09-8.12.49-.65.98-1.31,1.47-1.96Z"/><path class="cls-2" d="M415.33,453.29c1.39-7.16,2.78-14.32,4.17-21.48.51.1,1.02.2,1.54.3-1.56,7.13-3.12,14.26-4.68,21.38-.34-.07-.69-.13-1.03-.2Z"/><path class="cls-2" d="M351.87,299.38c3.27-6.02,6.54-12.05,9.82-18.07.4.21.8.42,1.2.62-3.2,6.05-6.4,12.1-9.6,18.15-.47-.23-.94-.47-1.42-.7Z"/><path class="cls-1" d="M196.82,411.22c4.02-4.73,7.95-9.11,11.6-13.7,2.87-3.62,6.87-3.49,8.8.76,2.97,6.53,4.67,13.01-.21,19.68-3.32,4.55-5.96,9.6-8.87,14.45-3.48,5.8-12.58,5.61-15.64-.66-7.67-15.69-15.15-31.47-22.44-47.34-4.13-8.98-7.73-18.19-12.03-28.39,3.51,1.21,6.63,1.36,8.27,3.01,7.17,7.16,16.16,12.71,19.25,23.51,2.5,8.77,6.24,17.19,9.48,25.74.39,1.03,1.15,1.91,1.78,2.94Z"/><path class="cls-1" d="M408.67,356.29c-6.61,15.03-12.54,29.06-18.93,42.88-5.09,11.02-10.85,21.72-16.04,32.68-2.41,5.08-7.22,4.34-11.17,4.77-1.53.16-3.87-2.86-5.07-4.88-2.8-4.71-5.24-9.65-7.62-14.59-3.44-7.15-2.43-9.79,5.46-11.59,5.05-1.15,10.42-.89,16.69-1.34,1.88-5.43,4.54-12.02,6.4-18.82,2.36-8.64,6.25-15.9,13.98-20.97,4.05-2.66,6.24-8,11.95-8.32.93-.05,1.87.07,4.34.18Z"/><path class="cls-1" d="M254.37,483.5c-5.19-11.15-10.3-22.11-15.45-33.16.39,0,.55-.04.69,0,12.92,3.83,11.33,15.51,13.53,25.11.61,2.68.84,5.45,1.23,8.05Z"/></g></svg>